Coordinates
version=1
nRows=8
nColumns=63
inDegrees=yes

Units are S.I. units (second, meters, Newtons, ...)
If the header above contains a line with 'inDegrees', this indicates whether rotational values are in degrees (yes) or radians (no).

endheader
time	pelvis_tilt	pelvis_list	pelvis_rotation	pelvis_tx	pelvis_ty	pelvis_tz	hip_flexion_r	hip_adduction_r	hip_rotation_r	knee_angle_r	knee_angle_r_beta	ankle_angle_r	subtalar_angle_r	mtp_angle_r	hip_flexion_l	hip_adduction_l	hip_rotation_l	knee_angle_l	knee_angle_l_beta	ankle_angle_l	subtalar_angle_l	mtp_angle_l	L5_S1_Flex_Ext	L5_S1_Lat_Bending	L5_S1_axial_rotation	L4_L5_Flex_Ext	L4_L5_Lat_Bending	L4_L5_axial_rotation	L3_L4_Flex_Ext	L3_L4_Lat_Bending	L3_L4_axial_rotation	L2_L3_Flex_Ext	L2_L3_Lat_Bending	L2_L3_axial_rotation	L1_L2_Flex_Ext	L1_L2_Lat_Bending	L1_L2_axial_rotation	L1_T12_Flex_Ext	L1_T12_Lat_Bending	L1_T12_axial_rotation	Abs_r3	Abs_r2	Abs_r1	Abs_t1	Abs_t2	neck_flexion	neck_bending	neck_rotation	arm_flex_r	arm_add_r	arm_rot_r	elbow_flex_r	pro_sup_r	wrist_flex_r	wrist_dev_r	arm_flex_l	arm_add_l	arm_rot_l	elbow_flex_l	pro_sup_l	wrist_flex_l	wrist_dev_l
      0.73333333	     -1.85545825	     -4.55524729	     86.96951981	      0.27929463	      0.98123203	      0.48862157	     -2.07510056	     -2.63074427	     -8.89877795	     11.99752799	      0.20939637	     37.20746046	      5.03235006	      0.00000000	     -3.23351872	      1.78581895	      8.83900632	      2.87941731	      0.05025531	     36.03322008	     -9.21285493	      0.00000000	      0.04857526	     -0.34698924	      0.39531726	      0.09020912	     -0.46149569	      0.42002459	      0.07980430	     -0.84366964	      0.42002459	      0.05551667	     -0.84366964	      0.34590260	      0.04510699	     -0.70758046	      0.32119527	      0.02775591	     -0.53748634	      0.29648794	      0.34696825	     -3.92521171	      2.19863599	      0.00000000	      0.00000000	     25.02558575	      0.28509905	     -7.63896552	     15.57763673	     -6.18404235	     83.10956862	     37.30849779	     28.72174275	      1.88246947	      5.44715959	     11.23000829	    -10.86160144	     57.47529252	     36.20150643	     87.37507815	     10.13180791	      0.96563008
      0.75000000	     -1.75158567	     -4.64427912	     87.29439166	      0.27917865	      0.98120903	      0.48766632	     -2.08747974	     -2.61071595	    -10.29189568	     12.04221634	      0.21017632	     37.36077529	      6.46816935	      0.00000000	     -3.33120786	      1.67242960	     11.71441603	      2.61186528	      0.04558565	     35.19009088	    -12.31830285	      0.00000000	      0.07125691	     -0.34538364	      0.22172381	      0.13233121	     -0.45936024	      0.23558155	      0.11706798	     -0.83976577	      0.23558155	      0.08143952	     -0.83976577	      0.19400834	      0.06616917	     -0.70430631	      0.18015060	      0.04071620	     -0.53499925	      0.16629286	      0.50898098	     -3.90704876	      1.23316134	      0.00000000	      0.00000000	     25.56577441	      0.64217004	     -7.72483920	     15.62220797	     -6.47512189	     84.24878526	     38.04606242	     27.51010345	      1.72829355	      3.90770081	      9.88035024	    -11.03369651	     54.47002136	     36.65220059	     86.60498614	     11.00641568	      0.61970989
      0.76666667	     -1.64718449	     -4.73633751	     87.37493615	      0.27921361	      0.98115329	      0.48709066	     -2.04301096	     -2.52195326	    -10.57874299	     12.04336197	      0.21019632	     37.29406743	      6.77808580	      0.00000000	     -3.13322295	      1.51934660	      9.76506931	      2.97107154	      0.05185498	     36.06516607	     -9.39564990	      0.00000000	      0.09575810	     -0.34785938	      0.12731427	      0.17783236	     -0.46265298	      0.13527142	      0.15732098	     -0.84578530	      0.13527142	      0.10944193	     -0.84578530	      0.11139999	      0.08892097	     -0.70935485	      0.10344285	      0.05471618	     -0.53883418	      0.09548571	      0.68399052	     -3.93505488	      0.70808380	      0.00000000	      0.00000000	     26.18194547	      1.11384082	     -7.99665383	     15.42512755	     -6.70894384	     84.23161026	     38.51483871	     27.67918235	      1.97066176	      2.80202758	      8.84159741	    -10.96501775	     52.27649031	     36.40674791	     85.21709622	     12.31937879	     -0.47670131
      0.78333333	     -1.49883179	     -4.75763516	     87.87908370	      0.27871742	      0.98112978	      0.48655085	     -2.27884839	     -2.28607924	    -10.73274106	     11.67624975	      0.20378900	     37.13389603	      6.46054085	      0.00000000	     -2.92592708	      1.29500164	      8.11914559	      3.42812117	      0.05983200	     37.03234310	     -6.37147756	      0.00000000	      0.11276330	     -0.34682519	     -0.03237653	      0.20941272	     -0.46127751	     -0.03440007	      0.18525882	     -0.84327077	     -0.03440007	      0.12887717	     -0.84327077	     -0.02832947	      0.10471200	     -0.70724593	     -0.02630593	      0.06443295	     -0.53723222	     -0.02428240	      0.80545695	     -3.92335594	     -0.18006856	      0.00000000	      0.00000000	     26.73243239	      1.80119198	     -7.85797438	     15.25242265	     -6.81957567	     83.84892249	     38.84832291	     28.64886510	      1.78226188	      2.60266144	      8.10003450	    -11.20055580	     52.09226383	     36.73292832	     81.01470126	     11.82174589	     -0.01041089
      0.80000000	     -1.47176540	     -4.80921940	     87.64970236	      0.27865552	      0.98108049	      0.48583133	     -2.23109409	     -2.42009512	    -11.73413845	     11.78405921	      0.20567063	     37.51750578	      8.12188924	      0.00000000	     -3.35948907	      1.37122048	     13.23069507	      2.46381156	      0.04300162	     35.24787741	    -12.94169979	      0.00000000	      0.15601995	     -0.34998020	     -0.10777985	      0.28974465	     -0.46547367	     -0.11451609	      0.25632518	     -0.85094187	     -0.11451609	      0.17831520	     -0.85094187	     -0.09430737	      0.14488013	     -0.71367963	     -0.08757113	      0.08914980	     -0.54211934	     -0.08083489	      1.11443491	     -3.95904606	     -0.59943918	      0.00000000	      0.00000000	     26.88772262	      2.33631667	     -7.38503685	     16.15788795	     -6.68498560	     87.77944200	     39.07565488	     19.34226496	      2.15727578	      1.81369813	      6.93018721	    -10.92655923	     49.83168706	     36.31055948	     81.29092318	     12.54684102	     -1.26031535
      0.81666667	     -1.43315257	     -4.82923120	     87.43008596	      0.27875271	      0.98112423	      0.48566376	     -2.24415187	     -2.41706956	    -11.66964796	     11.68231723	      0.20389490	     37.62952747	      8.45618193	      0.00000000	     -3.48037704	      1.33728881	     13.77768397	      2.16344856	      0.03775930	     35.11323879	    -13.53408050	      0.00000000	      0.18154379	     -0.35528513	     -0.08844924	      0.33714497	     -0.47252922	     -0.09397732	      0.29825829	     -0.86384026	     -0.09397732	      0.20748640	     -0.86384026	     -0.07739309	      0.16858156	     -0.72449744	     -0.07186501	      0.10373412	     -0.55033667	     -0.06633693	      1.29674914	     -4.01905644	     -0.49192815	      0.00000000	      0.00000000	     27.06300534	      2.57289494	     -7.31315635	     16.54231008	     -6.57512281	     89.09440284	     39.04120822	     16.52527216	      2.39707969	      2.09417067	      6.70131201	    -10.93810264	     50.68753978	     36.00628153	     79.41832650	     11.91892961	     -2.15323672
      0.83333333	     -1.38876190	     -4.80149608	     87.21743696	      0.27892598	      0.98131135	      0.48580474	     -2.31517269	     -2.38245537	    -11.47317758	     11.48976885	      0.20053430	     37.62145158	      8.67393368	      0.00000000	     -3.62635345	      1.28476453	     14.23914993	      1.85896411	      0.03244504	     34.96719038	    -13.98912711	      0.00000000	      0.19568377	     -0.35864832	     -0.03945311	      0.36340434	     -0.47700227	     -0.04191893	      0.32148887	     -0.87201753	     -0.04191893	      0.22364699	     -0.87201753	     -0.03452147	      0.18171195	     -0.73135566	     -0.03205565	      0.11181371	     -0.55554625	     -0.02958983	      1.39774964	     -4.05710156	     -0.21942637	      0.00000000	      0.00000000	     27.16781326	      2.58811521	     -7.37964448	     16.98261233	     -6.39885975	     90.51883166	     38.78912961	     14.28287475	      2.66572515	      2.47147643	      6.79245688	    -10.94002487	     52.12177341	     35.61532922	     78.11720592	     11.19342609	     -3.09148068
      0.85000000	     -1.42303053	     -4.74267001	     86.59757200	      0.27956294	      0.98151182	      0.48599625	     -2.27403148	     -2.46039174	    -10.87506465	     11.47669127	      0.20030605	     37.67577105	      8.85799527	      0.00000000	     -3.82365203	      1.32580120	     13.45729027	      1.55774626	      0.02718780	     35.12423005	    -13.23401010	      0.00000000	      0.21142371	     -0.36773059	      0.14035158	      0.39263497	     -0.48908169	      0.14912356	      0.34734801	     -0.89410016	      0.14912356	      0.24163616	     -0.89410016	      0.12280763	      0.19632806	     -0.74987622	      0.11403566	      0.12080751	     -0.56961469	      0.10526369	      1.51017842	     -4.15984201	      0.78059340	      0.00000000	      0.00000000	     27.19900625	      2.25966517	     -7.88748941	     17.08844890	     -6.38504211	     91.15885891	     38.57114065	     13.46148931	      2.92706374	      2.94342419	      7.23774226	    -10.83107844	     54.27557109	     34.98294924	     77.55029091	     10.64154869	     -4.08274201
